# Blender v3.2.2 OBJ File: 'Wild West assets.blend'
# www.blender.org
mtllib B2Clliff.mtl
o Cliff_Segment_2_Landscape.013
v -3.937600 1.249945 -0.005187
v -3.826134 1.249783 -0.002135
v -3.709730 1.249619 -0.000157
v -3.590037 1.249454 0.001060
v -3.467498 1.249291 0.001624
v -3.343563 1.249132 0.001912
v -3.218872 1.248976 0.002059
v -3.093393 1.248825 0.002089
v -2.967677 1.248679 0.002101
v -2.841822 1.248537 0.002102
v -2.715899 1.248404 0.002102
v -2.589975 1.248274 0.002102
v -2.464050 1.248152 0.002102
v -2.338126 1.248034 0.002102
v -2.212202 1.247923 0.002102
v -2.086279 1.247819 0.002102
v -3.983885 1.249948 -0.006927
v -3.937600 0.001871 -2.006592
v -3.826134 0.001709 -2.003539
v -3.709730 0.001545 -2.001562
v -3.590037 0.001381 -2.000344
v -3.467498 0.001218 -1.999781
v -3.343563 0.001059 -1.999492
v -3.218872 0.000902 -1.999345
v -3.093393 0.000751 -1.999315
v -2.967677 0.000606 -1.999304
v -2.841822 0.000464 -1.999303
v -2.715899 0.000330 -1.999303
v -2.589975 0.000200 -1.999302
v -2.464050 0.000078 -1.999303
v -2.338126 -0.000039 -1.999303
v -2.212202 -0.000151 -1.999303
v -2.086279 -0.000255 -1.999303
v -3.983885 0.001874 -2.008331
v -2.023317 1.247769 0.002102
v -2.023317 -0.000305 -1.999303
v -3.937600 0.001136 -0.005187
v -3.826134 0.000974 -0.002135
v -3.709730 0.000810 -0.000157
v -3.590037 0.000645 0.001060
v -3.467498 0.000482 0.001624
v -3.343563 0.000323 0.001912
v -3.218872 0.000167 0.002059
v -3.093393 0.000016 0.002089
v -2.967677 -0.000130 0.002101
v -2.841822 -0.000272 0.002102
v -2.715899 -0.000405 0.002102
v -2.589975 -0.000535 0.002102
v -2.464050 -0.000658 0.002102
v -2.338126 -0.000775 0.002102
v -2.212202 -0.000886 0.002102
v -2.086279 -0.000990 0.002102
v -3.983885 0.001139 -0.006927
v -2.023317 -0.001040 0.002102
v -2.212538 -0.020518 -1.999414
v -2.086615 -0.020622 -1.999414
v -2.464386 -0.020290 -1.999414
v -2.338462 -0.020407 -1.999414
v -2.716235 -0.020037 -1.999414
v -2.590311 -0.020167 -1.999413
v -2.968013 -0.019762 -1.999415
v -2.842157 -0.019904 -1.999414
v -3.219208 -0.019465 -1.999456
v -3.093729 -0.019616 -1.999426
v -3.467834 -0.019150 -1.999892
v -3.343899 -0.019309 -1.999604
v -3.710066 -0.018822 -2.001673
v -3.590373 -0.018987 -2.000455
v -3.937936 -0.018497 -2.006703
v -3.826469 -0.018658 -2.003650
v -3.984221 -0.018493 -2.008442
v -2.023653 -0.020673 -1.999414
v -3.937936 -0.019232 -0.005298
v -3.984221 -0.019229 -0.007038
v -2.212538 -0.021254 0.001990
v -2.086615 -0.021358 0.001990
v -2.338462 -0.021142 0.001991
v -2.023653 -0.021408 0.001991
v -2.464386 -0.021025 0.001991
v -2.590311 -0.020903 0.001991
v -2.716235 -0.020773 0.001991
v -2.842157 -0.020640 0.001990
v -2.968013 -0.020498 0.001990
v -3.093729 -0.020352 0.001978
v -3.219208 -0.020201 0.001948
v -3.343899 -0.020045 0.001801
v -3.467834 -0.019885 0.001513
v -3.590373 -0.019723 0.000949
v -3.710066 -0.019558 -0.000268
v -3.826469 -0.019394 -0.002246
vn 0.0007 0.8744 0.4852
vn 0.0004 0.4876 -0.8731
vn 0.0010 0.8744 0.4852
vn 0.0005 0.4876 -0.8731
vn 0.0006 0.4876 -0.8731
vn -0.0024 0.8737 0.4864
vn -0.0005 0.8741 0.4857
vn 0.0037 0.4877 -0.8730
vn 0.0071 0.4879 -0.8729
vn -0.5599 0.7318 0.3885
vn -0.0152 0.8733 0.4869
vn 0.0287 0.4881 -0.8723
vn -0.5966 0.3910 -0.7008
vn 0.0009 0.8744 0.4852
vn -0.0096 0.8732 0.4873
vn 0.0200 0.4881 -0.8726
vn 0.0007 0.8743 0.4854
vn 0.0007 0.4876 -0.8731
vn 0.0012 0.4876 -0.8730
vn 0.0003 0.8743 0.4855
vn 0.0021 0.4877 -0.8730
vn -0.0054 0.8736 0.4866
vn 0.0125 0.4879 -0.8728
vn 0.0008 0.8744 0.4852
vn 0.5538 0.7280 0.4042
vn 0.6168 0.3799 -0.6894
vn -0.0136 -0.0026 0.9999
vn -0.0074 -0.0027 1.0000
vn -0.0000 -0.0027 1.0000
vn -0.7179 0.0040 0.6962
vn -0.0324 -0.0025 0.9995
vn -0.0222 -0.0025 0.9998
vn -0.0001 -0.0027 1.0000
vn -0.0002 -0.0027 1.0000
vn -0.0007 -0.0027 1.0000
vn 0.7083 -0.0077 0.7059
vn -0.0018 -0.0027 1.0000
vn -0.0035 -0.0027 1.0000
vn 0.0017 -0.7048 -0.7094
vn 0.0045 -0.7045 -0.7097
vn -0.0008 -0.7050 -0.7092
vn 0.5716 -0.5804 -0.5801
vn 0.5721 -0.5835 0.5764
vn -0.0008 -0.7091 0.7051
vn -0.0008 -0.7092 0.7050
vn -0.0009 -0.7092 0.7050
vn -0.0013 -0.7091 0.7051
vn -0.0020 -0.7090 0.7052
vn -0.0032 -0.7089 0.7053
vn -0.0060 -0.7085 0.7057
vn -0.0104 -0.7083 0.7058
vn -0.0165 -0.7079 0.7062
vn -0.0238 -0.7077 0.7062
vn -0.5928 -0.5762 0.5626
vn -0.5727 -0.5694 -0.5897
vn 0.0223 -0.7039 -0.7099
vn 0.0150 -0.7040 -0.7100
vn 0.0089 -0.7044 -0.7098
vn 0.0005 -0.7049 -0.7093
vn -0.0003 -0.7050 -0.7093
vn -0.0007 -0.7051 -0.7092
vn -0.0007 -0.7050 -0.7092
vn -0.0008 -0.7051 -0.7092
usemtl None
s 1
f 15//1 16//1 33//2 32//2
f 9//3 10//3 27//4 26//5
f 4//6 5//7 22//8 21//9
f 17//10 1//11 18//12 34//13
f 10//3 11//14 28//4 27//4
f 1//11 2//15 19//16 18//12
f 7//17 8//3 25//18 24//19
f 5//7 6//20 23//21 22//8
f 2//15 3//22 20//23 19//16
f 8//3 9//3 26//5 25//18
f 6//20 7//17 24//19 23//21
f 3//22 4//6 21//9 20//23
f 11//14 12//14 29//4 28//4
f 12//14 13//24 30//4 29//4
f 14//24 15//1 32//2 31//2
f 13//24 14//24 31//2 30//4
f 16//1 35//25 36//26 33//2
f 4//6 3//22 39//27 40//28
f 11//14 10//3 46//29 47//29
f 1//11 17//10 53//30 37//31
f 3//22 2//15 38//32 39//27
f 10//3 9//3 45//33 46//29
f 16//1 15//1 51//29 52//29
f 2//15 1//11 37//31 38//32
f 9//3 8//3 44//34 45//33
f 15//1 14//24 50//29 51//29
f 8//3 7//17 43//35 44//34
f 35//25 16//1 52//29 54//36
f 7//17 6//20 42//37 43//35
f 14//24 13//24 49//29 50//29
f 6//20 5//7 41//38 42//37
f 13//24 12//14 48//29 49//29
f 5//7 4//6 40//28 41//38
f 12//14 11//14 47//29 48//29
f 21//9 22//8 65//39 68//40
f 35//25 54//36 36//26
f 17//10 34//13 53//30
f 56//41 72//42 78//43 76//44 75//45 77//45 79//45 80//45 81//45 82//44 83//45 84//46 85//47 86//48 87//49 88//50 89//51 90//52 73//53 74//54 71//55 69//56 70//57 67//58 68//40 65//39 66//59 63//60 64//61 61//62 62//41 59//41 60//63 57//41 58//41 55//63
f 40//28 39//27 89//51 88//50
f 52//29 51//29 75//45 76//44
f 18//12 19//16 70//57 69//56
f 39//27 38//32 90//52 89//51
f 32//2 33//2 56//41 55//63
f 51//29 50//29 77//45 75//45
f 19//16 20//23 67//58 70//57
f 38//32 37//31 73//53 90//52
f 30//4 31//2 58//41 57//41
f 54//36 52//29 76//44 78//43
f 34//13 18//12 69//56 71//55
f 31//2 32//2 55//63 58//41
f 50//29 49//29 79//45 77//45
f 28//4 29//4 60//63 59//41
f 49//29 48//29 80//45 79//45
f 29//4 30//4 57//41 60//63
f 48//29 47//29 81//45 80//45
f 26//5 27//4 62//41 61//62
f 47//29 46//29 82//44 81//45
f 27//4 28//4 59//41 62//41
f 33//2 36//26 72//42 56//41
f 46//29 45//33 83//45 82//44
f 53//30 34//13 71//55 74//54
f 24//19 25//18 64//61 63//60
f 45//33 44//34 84//46 83//45
f 36//26 54//36 78//43 72//42
f 25//18 26//5 61//62 64//61
f 44//34 43//35 85//47 84//46
f 22//8 23//21 66//59 65//39
f 43//35 42//37 86//48 85//47
f 23//21 24//19 63//60 66//59
f 42//37 41//38 87//49 86//48
f 20//23 21//9 68//40 67//58
f 41//38 40//28 88//50 87//49
f 37//31 53//30 74//54 73//53
